<?xml version="1.0" encoding="UTF-8"?>
<svg id="Layer_2" data-name="Layer 2" xmlns="http://www.w3.org/2000/svg" viewBox="0 0 252.78 61.8">
  <defs>
    <style>
      .cls-1 {
        fill: none;
      }

      .cls-2 {
        fill: #221f20;
        font-family: Neutraface2Text-Light, 'Neutraface 2 Text';
        font-size: 10.64px;
        font-weight: 300;
      }

      .cls-3 {
        letter-spacing: .5em;
      }

      .cls-4 {
        letter-spacing: .43em;
      }
    </style>
  </defs>
  <g id="Layer_1-2" data-name="Layer 1">
    <g>
      <g>
        <path class="cls-1" d="M30.06,17.29c0-5.05-2.75-8.33-9.31-8.33h-11.35v15.35h17.16c2.38-1.42,3.5-3.91,3.5-7.02Z"/>
        <path class="cls-1" d="M71.69,24.31h4.79c-1.18-3.15-2.36-6.99-2.44-7.37-.08.23-1.15,4.09-2.35,7.37Z"/>
        <path class="cls-1" d="M223.3,24.31h4.79c-1.18-3.15-2.36-6.99-2.44-7.37-.08.23-1.15,4.09-2.35,7.37Z"/>
        <path class="cls-1" d="M22.43,52.76c6.92,0,10.29-3.9,10.29-9.58,0-2.24-.53-4.16-1.57-5.69H9.4v15.26h13.03Z"/>
        <polygon points="238.59 50.01 243.03 61 252.78 61 242.58 37.49 233.46 37.49 238.59 50.01"/>
        <path d="M225.65,16.94c.08.38,1.26,4.22,2.44,7.37h8.78L226.36.09h-1.06l-10.26,24.22h8.26c1.2-3.28,2.27-7.14,2.35-7.37Z"/>
        <polygon points="199.49 61 208.53 61 212.97 50.01 218.01 37.49 209.45 37.49 199.49 61"/>
        <path d="M9.4,8.96h11.35c6.56,0,9.31,3.28,9.31,8.33,0,3.11-1.12,5.6-3.5,7.02h10.46c1.49-2.19,2.26-4.9,2.26-7.9,0-8.78-5.85-15.69-17.82-15.69H0v23.6h9.4v-15.35Z"/>
        <path d="M32.72,43.18c0,5.67-3.37,9.58-10.29,9.58h-13.03v-15.26H0v23.51h22.97c12.59,0,19.15-7.36,19.15-17.11,0-2.44-.39-4.56-1.11-6.4h-9.86c1.04,1.53,1.57,3.45,1.57,5.69Z"/>
        <polygon points="86.98 50.01 91.41 61 101.17 61 90.97 37.49 81.85 37.49 86.98 50.01"/>
        <polygon points="47.88 61 56.92 61 61.36 50.01 66.4 37.49 57.84 37.49 47.88 61"/>
        <path d="M74.04,16.94c.08.38,1.26,4.22,2.44,7.37h8.78L74.75.09h-1.06l-10.26,24.22h8.26c1.2-3.28,2.27-7.14,2.35-7.37Z"/>
        <path d="M137.16,45.22c0,4.96-4.34,8.25-10.46,8.25-7.36,0-10.99-3.72-13.83-8.42l-7.71,4.26c3.37,6.83,10.29,12.5,21.72,12.5s19.59-6.12,19.59-16.67c0-2.96-.52-5.46-1.53-7.64h-12.53c3.11,1.97,4.76,4.17,4.76,7.73Z"/>
        <path d="M118.1,15.16c0-4.08,3.01-7,7.8-7s7.36,1.86,9.66,5.85l7.36-4.52c-3.63-6.47-9.04-9.49-17.02-9.49-10.02,0-16.94,6.38-16.94,15.34,0,3.66.83,6.55,2.36,8.97h15.29c-5.99-2.62-8.52-4.67-8.52-9.15Z"/>
        <path d="M165.8,15.16c0-4.08,3.01-7,7.8-7s7.36,1.86,9.66,5.85l7.36-4.52c-3.64-6.47-9.04-9.49-17.02-9.49-10.02,0-16.94,6.38-16.94,15.34,0,3.66.83,6.55,2.36,8.97h15.29c-5.99-2.62-8.52-4.67-8.52-9.15Z"/>
        <path d="M184.86,45.22c0,4.96-4.34,8.25-10.46,8.25-7.36,0-11-3.72-13.83-8.42l-7.71,4.26c3.37,6.83,10.29,12.5,21.72,12.5s19.6-6.12,19.6-16.67c0-2.96-.52-5.46-1.53-7.64h-12.53c3.11,1.97,4.76,4.17,4.76,7.73Z"/>
      </g>
      <text class="cls-2" transform="translate(91.11 34.74)"><tspan class="cls-4" x="0" y="0">A</tspan><tspan class="cls-3" x="11.5" y="0">TELIER</tspan></text>
    </g>
  </g>
</svg>