<?xml version="1.0" encoding="UTF-8"?>
<svg id="Layer_2" data-name="Layer 2" xmlns="http://www.w3.org/2000/svg" viewBox="0 0 206.9 161.66">
  <g id="Layer_2-2" data-name="Layer 2">
    <g id="ZyPvd7.tif">
      <g>
        <path d="M203.88,17.98c1.25,3.84,2.71,7.62,3.02,11.7l-.03,102.77c-1.71,15.56-13.48,27.62-29.18,29.21H29.89c-15.87-1.46-28.17-14.25-29.21-30.17-2.18-33.24,1.69-68.82,0-102.3.65-4.8,1.97-9.68,4.77-13.7.33-.08,4.59,3.65,5.24,4.24,28.02,25.2,53.89,53.03,81.86,78.33,6.66,5.32,15.47,5.5,22.21.23L202.63,18.47l1.25-.49Z"/>
        <path d="M194.39,7.49l-90.6,80.37c-1.72,0-8.97-7.11-10.74-8.77C70.71,58.11,48.34,36.89,26.4,15.5c-1.31-1.27-10.39-10.01-10.22-10.73C20.36,1.76,25.32.46,30.39,0h146.81c3.56.35,6.75,1.07,10.05,2.42,1,.41,8.06,3.75,7.15,5.07Z"/>
      </g>
    </g>
  </g>
</svg>