<?xml version="1.0" encoding="UTF-8"?>
<svg id="Layer_2" data-name="Layer 2" xmlns="http://www.w3.org/2000/svg" viewBox="0 0 185.19 184.77">
  <g id="Layer_2-2" data-name="Layer 2">
    <g id="QqrALM.tif">
      <g>
        <path d="M48.34.09l88.12-.09c28.52,4.31,46.85,25.98,48.24,54.56,1.34,27.55-.54,55.71-.66,83.23-3.74,24.11-24.47,44.34-49.03,46.29-27.42,2.17-57.61-1.6-85.32,0-26.77-2.96-47.43-24.81-49.16-51.65-1.71-26.48,1.28-54.69-.03-81.36C2.4,25.03,22.4,3.48,48.34.09ZM139.64,33.5c-13.64,2.19-11.75,24.36,3.82,22.78,14.78-1.5,12.46-25.39-3.82-22.78ZM89.76,47.5c-32.32,2.29-51.57,36.73-36.41,65.56,17.46,33.22,66.59,30.26,80.52-4.49,12.02-29.99-11.82-63.36-44.11-61.07Z"/>
        <path d="M87.75,61.45c33.89-4.25,49.08,39.44,21.22,56.65-23.84,14.73-52.77-6.81-46.32-33.84,2.63-11.03,13.78-21.39,25.1-22.81Z"/>
      </g>
    </g>
  </g>
</svg>